<mxfile host="app.diagrams.net" modified="2024-06-25T04:56:49.587Z" agent="Mozilla/5.0 (Windows NT 10.0; Win64; x64) AppleWebKit/537.36 (KHTML, like Gecko) Chrome/126.0.0.0 Safari/537.36" etag="iqL1seFSmTEn9qU26oRr" version="24.6.2" type="device">
  <diagram id="PJQybLOCzVXrVDerC-yX" name="Страница — 1">
    <mxGraphModel dx="5207" dy="4860" grid="1" gridSize="10" guides="1" tooltips="1" connect="1" arrows="1" fold="1" page="1" pageScale="1" pageWidth="2339" pageHeight="3300" math="0" shadow="0">
      <root>
        <mxCell id="0" />
        <mxCell id="1" parent="0" />
        <mxCell id="KOtptprf6ZvGxsES4XY6-7" style="edgeStyle=orthogonalEdgeStyle;rounded=0;orthogonalLoop=1;jettySize=auto;html=1;exitX=0.5;exitY=1;exitDx=0;exitDy=0;" edge="1" parent="1" source="KOtptprf6ZvGxsES4XY6-1" target="KOtptprf6ZvGxsES4XY6-3">
          <mxGeometry relative="1" as="geometry" />
        </mxCell>
        <mxCell id="KOtptprf6ZvGxsES4XY6-1" value="Start" style="html=1;overflow=block;blockSpacing=1;whiteSpace=wrap;fontSize=23.3;align=center;spacing=3.8;verticalAlign=middle;strokeColor=#unset;fillOpacity=100;rounded=1;absoluteArcSize=1;arcSize=9;fillColor=#d7faf5;strokeWidth=NaN;lucidId=huNK-i~51UBm;" vertex="1" parent="1">
          <mxGeometry x="-1340" y="-3280" width="120" height="60" as="geometry" />
        </mxCell>
        <mxCell id="KOtptprf6ZvGxsES4XY6-6" style="edgeStyle=orthogonalEdgeStyle;rounded=0;orthogonalLoop=1;jettySize=auto;html=1;exitX=0.5;exitY=1;exitDx=0;exitDy=0;entryX=0.5;entryY=0;entryDx=0;entryDy=0;" edge="1" parent="1" source="KOtptprf6ZvGxsES4XY6-3" target="KOtptprf6ZvGxsES4XY6-5">
          <mxGeometry relative="1" as="geometry" />
        </mxCell>
        <mxCell id="KOtptprf6ZvGxsES4XY6-3" value="&lt;font style=&quot;font-size: 23px;&quot;&gt;Если на последовательный порт приходят данные&lt;/font&gt;" style="rhombus;whiteSpace=wrap;html=1;" vertex="1" parent="1">
          <mxGeometry x="-1435" y="-3120" width="310" height="160" as="geometry" />
        </mxCell>
        <mxCell id="KOtptprf6ZvGxsES4XY6-9" style="edgeStyle=orthogonalEdgeStyle;rounded=0;orthogonalLoop=1;jettySize=auto;html=1;exitX=0.5;exitY=1;exitDx=0;exitDy=0;entryX=0.5;entryY=0;entryDx=0;entryDy=0;" edge="1" parent="1" source="KOtptprf6ZvGxsES4XY6-5">
          <mxGeometry relative="1" as="geometry">
            <mxPoint x="-1280" y="-2600" as="targetPoint" />
          </mxGeometry>
        </mxCell>
        <mxCell id="KOtptprf6ZvGxsES4XY6-5" value="&lt;font style=&quot;font-size: 23px;&quot;&gt;Запоминаем количество данных в пакете&lt;/font&gt;" style="rounded=1;whiteSpace=wrap;html=1;" vertex="1" parent="1">
          <mxGeometry x="-1430" y="-2860" width="300" height="130" as="geometry" />
        </mxCell>
        <mxCell id="KOtptprf6ZvGxsES4XY6-10" value="&lt;font style=&quot;font-size: 23px;&quot;&gt;Если на последовательный порт приходят данные&lt;/font&gt;" style="rhombus;whiteSpace=wrap;html=1;" vertex="1" parent="1">
          <mxGeometry x="-1435" y="-2600" width="310" height="160" as="geometry" />
        </mxCell>
      </root>
    </mxGraphModel>
  </diagram>
</mxfile>
